<?xml version="1.0" encoding="UTF-8" standalone="no"?><!DOCTYPE svg PUBLIC "-//W3C//DTD SVG 1.1//EN" "http://www.w3.org/Graphics/SVG/1.1/DTD/svg11.dtd"><svg width="100%" height="100%" viewBox="0 0 26 26" version="1.1" xmlns="http://www.w3.org/2000/svg" xmlns:xlink="http://www.w3.org/1999/xlink" xml:space="preserve" xmlns:serif="http://www.serif.com/" style="fill-rule:evenodd;clip-rule:evenodd;stroke-linejoin:round;stroke-miterlimit:2;"><g><clipPath id="_clip1"><rect id="airbnb_logo.svg" x="0.801" y="0" width="24.398" height="26"/></clipPath><g clip-path="url(#_clip1)"><clipPath id="_clip2"><rect x="0.801" y="0" width="85.122" height="26.665"/></clipPath><g clip-path="url(#_clip2)"><g><path d="M45.133,6.533c-0,0.937 -0.762,1.691 -1.708,1.691c-0.946,0 -1.708,-0.754 -1.708,-1.691c0,-0.937 0.736,-1.692 1.708,-1.692c0.972,0.026 1.708,0.781 1.708,1.692Zm-7.041,3.409l0,0.417c0,-0 -0.814,-1.042 -2.548,-1.042c-2.863,0 -5.097,2.16 -5.097,5.153c0,2.967 2.208,5.153 5.097,5.153c1.76,0 2.548,-1.067 2.548,-1.067l0,0.443c0,0.208 0.158,0.364 0.368,0.364l2.128,-0l-0,-9.786l-2.128,-0c-0.21,0 -0.368,0.183 -0.368,0.365Zm0,6.272c-0.394,0.573 -1.182,1.067 -2.127,1.067c-1.682,0 -2.969,-1.041 -2.969,-2.811c-0,-1.77 1.287,-2.811 2.969,-2.811c0.919,0 1.76,0.521 2.127,1.067l0,3.488Zm4.072,-6.637l2.522,0l-0,9.786l-2.522,0l0,-9.786Zm37.672,-0.26c-1.734,-0 -2.549,1.041 -2.549,1.041l0,-5.491l-2.521,0l-0,14.496l2.128,0c0.21,0 0.367,-0.182 0.367,-0.364l0,-0.442c0,-0 0.815,1.067 2.548,1.067c2.864,-0 5.097,-2.186 5.097,-5.153c-0,-2.967 -2.233,-5.154 -5.07,-5.154Zm-0.42,7.938c-0.973,-0 -1.734,-0.494 -2.129,-1.067l0,-3.488c0.395,-0.52 1.235,-1.067 2.129,-1.067c1.681,0 2.968,1.041 2.968,2.811c0,1.77 -1.287,2.811 -2.968,2.811Zm-5.964,-3.695l0,5.829l-2.522,0l0,-5.543c0,-1.614 -0.525,-2.265 -1.943,-2.265c-0.762,0 -1.55,0.391 -2.05,0.964l0,6.819l-2.521,-0l-0,-9.786l1.996,-0c0.21,-0 0.368,0.182 0.368,0.364l-0,0.417c0.735,-0.755 1.707,-1.042 2.679,-1.042c1.103,0 2.023,0.313 2.759,0.937c0.893,0.729 1.234,1.666 1.234,3.306Zm-15.158,-4.243c-1.733,-0 -2.548,1.041 -2.548,1.041l-0,-5.491l-2.522,0l0,14.496l2.128,0c0.21,0 0.368,-0.182 0.368,-0.364l-0,-0.442c-0,-0 0.814,1.067 2.548,1.067c2.863,-0 5.096,-2.186 5.096,-5.153c0.026,-2.967 -2.206,-5.154 -5.07,-5.154Zm-0.421,7.938c-0.971,-0 -1.733,-0.494 -2.127,-1.067l-0,-3.488c0.394,-0.52 1.235,-1.067 2.127,-1.067c1.682,0 2.969,1.041 2.969,2.811c0,1.77 -1.287,2.811 -2.969,2.811Zm-6.829,-7.938c0.761,-0 1.155,0.13 1.155,0.13l0,2.316c0,0 -2.101,-0.702 -3.415,0.781l0,6.845l-2.522,-0l0,-9.812l2.128,0c0.21,0 0.368,0.183 0.368,0.365l-0,0.416c0.473,-0.546 1.498,-1.041 2.286,-1.041Zm-26.192,9.161c-0.131,-0.312 -0.262,-0.65 -0.394,-0.937c-0.21,-0.468 -0.42,-0.911 -0.604,-1.327l-0.026,-0.026c-1.813,-3.904 -3.757,-7.86 -5.806,-11.763l-0.079,-0.157c-0.215,-0.405 -0.425,-0.812 -0.63,-1.223c-0.263,-0.469 -0.525,-0.963 -0.946,-1.431c-0.84,-1.041 -2.049,-1.614 -3.336,-1.614c-1.314,-0 -2.496,0.573 -3.362,1.561c-0.394,0.469 -0.684,0.963 -0.946,1.432c-0.205,0.41 -0.415,0.818 -0.63,1.223l-0.079,0.157c-2.023,3.903 -3.993,7.859 -5.806,11.763l-0.026,0.051c-0.184,0.417 -0.395,0.86 -0.605,1.328c-0.131,0.286 -0.262,0.598 -0.393,0.937c-0.342,0.962 -0.447,1.874 -0.316,2.811c0.289,1.952 1.603,3.591 3.416,4.32c0.683,0.287 1.392,0.417 2.127,0.417c0.211,-0 0.473,-0.026 0.684,-0.053c0.867,-0.104 1.76,-0.39 2.627,-0.884c1.077,-0.599 2.101,-1.457 3.257,-2.707c1.156,1.25 2.207,2.108 3.258,2.707c0.867,0.494 1.76,0.78 2.627,0.884c0.21,0.027 0.473,0.053 0.683,0.053c0.736,-0 1.471,-0.13 2.128,-0.417c1.839,-0.729 3.126,-2.394 3.415,-4.32c0.209,-0.911 0.104,-1.822 -0.238,-2.785Zm-11.847,1.353c-1.419,-1.769 -2.339,-3.435 -2.654,-4.84c-0.131,-0.599 -0.157,-1.119 -0.078,-1.588c0.052,-0.416 0.21,-0.781 0.42,-1.093c0.499,-0.702 1.34,-1.145 2.312,-1.145c0.972,0 1.839,0.417 2.312,1.145c0.21,0.312 0.368,0.677 0.421,1.093c0.078,0.469 0.052,1.015 -0.079,1.588c-0.316,1.379 -1.236,3.045 -2.654,4.84Zm10.481,1.224c-0.184,1.353 -1.103,2.525 -2.39,3.045c-0.631,0.26 -1.314,0.338 -1.997,0.26c-0.656,-0.078 -1.313,-0.286 -1.996,-0.676c-0.946,-0.521 -1.891,-1.328 -2.995,-2.525c1.734,-2.108 2.784,-4.034 3.179,-5.752c0.184,-0.807 0.21,-1.535 0.131,-2.212c-0.105,-0.651 -0.342,-1.249 -0.709,-1.77c-0.815,-1.171 -2.181,-1.848 -3.705,-1.848c-1.523,0 -2.889,0.703 -3.703,1.848c-0.368,0.521 -0.605,1.119 -0.71,1.77c-0.105,0.677 -0.079,1.431 0.131,2.212c0.394,1.718 1.471,3.67 3.179,5.778c-1.077,1.197 -2.049,2.004 -2.995,2.525c-0.683,0.39 -1.34,0.598 -1.996,0.676c-0.709,0.078 -1.393,-0.026 -1.997,-0.26c-1.287,-0.52 -2.206,-1.692 -2.39,-3.045c-0.079,-0.651 -0.027,-1.301 0.236,-2.03c0.079,-0.261 0.211,-0.521 0.342,-0.833c0.184,-0.416 0.393,-0.859 0.604,-1.301l0.026,-0.052c1.813,-3.878 3.757,-7.834 5.78,-11.685l0.078,-0.157c0.211,-0.39 0.421,-0.806 0.631,-1.197c0.21,-0.416 0.446,-0.807 0.736,-1.145c0.551,-0.624 1.287,-0.963 2.101,-0.963c0.815,-0 1.55,0.339 2.102,0.963c0.289,0.339 0.525,0.729 0.735,1.145c0.211,0.391 0.421,0.807 0.631,1.197l0.079,0.157c1.992,3.867 3.91,7.772 5.753,11.711l0,0.026c0.21,0.417 0.394,0.885 0.604,1.302c0.132,0.312 0.263,0.572 0.342,0.832c0.21,0.676 0.288,1.327 0.183,2.004Z" style="fill:#ff5a5f;fill-rule:nonzero;"/></g></g></g></g></svg>